<svg id="Layer_1" data-name="Layer 1" xmlns="http://www.w3.org/2000/svg" viewBox="0 0 88.12 90.39"><defs><style>.cls-1{fill:#fff;}.cls-2{fill:#10708d;}.cls-3{fill:none;stroke:#10708d;stroke-miterlimit:10;stroke-width:1.1px;}</style></defs><g id="Group_607" data-name="Group 607"><path id="Path_775" data-name="Path 775" d="M32.56,54.64a1.43,1.43,0,0,1-1.09-1.09,1.16,1.16,0,0,1,0-.37V28.68a1.37,1.37,0,0,1,1.27-1.46H45.53A1.37,1.37,0,0,1,47,28.5V39L47.2,39a8.22,8.22,0,0,1,10.9,4,8.1,8.1,0,0,1,.63,2c.05.25.08.51.12.76V47a1.57,1.57,0,0,0,0,.23,8.21,8.21,0,0,1-6.07,7.09c-.5.13-1,.19-1.55.28H50.07c-.56-.11-1.14-.18-1.69-.33s-1-.35-1.51-.54a1.48,1.48,0,0,1-1,.87Zm8-.92h4.94a.36.36,0,0,0,.21,0,1.22,1.22,0,0,0,.3-.34s-.11-.2-.2-.26A8.23,8.23,0,0,1,44,41.61a8,8,0,0,1,1.89-1.88.45.45,0,0,0,.2-.39c0-3.53,0-7.05,0-10.58,0-.48-.14-.62-.62-.62H40.57v.33c0,1.54,0,3.07,0,4.61a1.37,1.37,0,1,1-2.74.13.38.38,0,0,1,0-.15c0-1.53,0-3.07,0-4.6v-.33H33c-.49,0-.63.14-.63.64V53.09c0,.5.15.64.64.64h4.85v-4.8a3.54,3.54,0,0,1,0-.46A1.34,1.34,0,0,1,39,47.36a1.36,1.36,0,0,1,1.59,1.1,1.15,1.15,0,0,1,0,.32c0,1.53,0,3.07,0,4.61Zm2.74-7.3a7.31,7.31,0,1,0,7.32-7.31,7.31,7.31,0,0,0-7.32,7.31ZM38.77,28.14a2.06,2.06,0,0,0,0,.21v4.71a.75.75,0,0,0,0,.21.44.44,0,0,0,.54.32.42.42,0,0,0,.31-.27.7.7,0,0,0,0-.29V28.35a1.49,1.49,0,0,0,0-.21Zm.88,25.58c0-.07,0-.13,0-.18V48.81a.63.63,0,0,0,0-.27.37.37,0,0,0-.42-.28.86.86,0,0,0-.41.29c-.06.07,0,.22,0,.33v4.55c0,.1,0,.19,0,.29Z"/><path id="Path_776" data-name="Path 776" class="cls-1" d="M40.58,40.93V38.7a1.38,1.38,0,0,0-1.33-1.42h0a1.36,1.36,0,0,0-1.39,1.32v.1c0,1.49,0,3,0,4.47a1.38,1.38,0,0,0,2.75.08v-.08C40.59,42.43,40.58,41.68,40.58,40.93Zm-6.41-4.32V31.82a.44.44,0,0,0-.39-.48h-.07a.46.46,0,0,0-.45.46h0v9.42c0,.1,0,.22,0,.28a.77.77,0,0,0,.36.31.51.51,0,0,0,.41-.16.58.58,0,0,0,.11-.4c0-1.55,0-3.1,0-4.65Zm0-6.88v-.24a.44.44,0,0,0-.44-.44.46.46,0,0,0-.46.4,2.44,2.44,0,0,0,0,.27c0,.47.16.7.47.7s.44-.22.44-.69Z"/><path id="Path_777" data-name="Path 777" d="M40.58,40.93c0,.75,0,1.5,0,2.25a1.38,1.38,0,1,1-2.75.07V38.7a1.36,1.36,0,0,1,1.3-1.41h.09a1.38,1.38,0,0,1,1.36,1.39v2.26Zm-1.83,0v2.25a.44.44,0,0,0,.39.49h0a.47.47,0,0,0,.47-.5V38.86a1.13,1.13,0,0,0,0-.32.44.44,0,0,0-.5-.34c-.25,0-.39.21-.39.52v2.2Z"/><path id="Path_778" data-name="Path 778" d="M34.17,36.61v4.66a.58.58,0,0,1-.1.4.53.53,0,0,1-.42.15.79.79,0,0,1-.35-.3c0-.07,0-.19,0-.29V31.81a.44.44,0,0,1,.44-.46h0a.43.43,0,0,1,.46.41v4.85Z"/><path id="Path_779" data-name="Path 779" d="M34.17,29.73c0,.47-.14.68-.44.69s-.47-.23-.47-.7a2.44,2.44,0,0,1,0-.27.46.46,0,0,1,.46-.4.44.44,0,0,1,.44.44A1.92,1.92,0,0,1,34.17,29.73Z"/><g id="Group_606" data-name="Group 606"><path id="Path_780" data-name="Path 780" class="cls-2" d="M50.91,41.33c.2,0,.4.05.6.1a4.18,4.18,0,0,1,1.88.91,4.28,4.28,0,0,1,1.25,1.77.39.39,0,0,1-.12.48.37.37,0,0,1-.48,0,.54.54,0,0,1-.15-.22,3.5,3.5,0,0,0-6.74.92v.09h.78a.4.4,0,0,1,.4.38V49.5a.39.39,0,0,1-.35.4h0a9.2,9.2,0,0,1-1,0,1.56,1.56,0,0,1-1.36-1.33.14.14,0,0,0,0-.06V46.82s0,0,0,0a1.57,1.57,0,0,1,.72-1.15.16.16,0,0,0,.06-.12,4.1,4.1,0,0,1,.16-1,4.23,4.23,0,0,1,3.35-3.05c.16,0,.34,0,.51-.08Zm-3.39,4.83h-.45a.8.8,0,0,0-.74.8V48.3a.78.78,0,0,0,.49.73,1.64,1.64,0,0,0,.7.07Z"/><path id="Path_781" data-name="Path 781" class="cls-2" d="M53.73,49.9a1.23,1.23,0,0,1-.23.72,1.18,1.18,0,0,1-1,.49H51.4a.14.14,0,0,0-.13.06.77.77,0,0,1-.9.29.79.79,0,0,1-.5-1,.83.83,0,0,1,.5-.5.79.79,0,0,1,.9.3.14.14,0,0,0,.12.06h1.1a.4.4,0,0,0,.44-.36V45.85c0-.34.15-.48.48-.48s.62,0,.93,0a1.57,1.57,0,0,1,1.37,1.48q0,.77,0,1.53a1.58,1.58,0,0,1-1.5,1.5Zm0-.8h.46a.79.79,0,0,0,.73-.79c0-.45,0-.9,0-1.36a.76.76,0,0,0-.6-.76,3.77,3.77,0,0,0-.58,0Z"/></g><circle id="Ellipse_87" data-name="Ellipse 87" class="cls-3" cx="50.63" cy="46.42" r="7.7"/></g></svg>