<svg id="Layer_1" data-name="Layer 1" xmlns="http://www.w3.org/2000/svg" viewBox="0 0 88.12 90.39"><defs><style>.cls-1{fill:none;}.cls-2{fill:#10889f;}</style></defs><g id="Symbol_143_3" data-name="Symbol 143 3"><rect id="Rectangle_320" data-name="Rectangle 320" class="cls-1" x="34.85" y="37.19" width="16" height="16"/><path id="Path_110" data-name="Path 110" class="cls-2" d="M44.13,48.62l1.72-1.57a.52.52,0,0,1,.43-.14l.28.14,4,1.86c.29.14.29.28.29.57a3.64,3.64,0,0,1-1.14,2.57,4.14,4.14,0,0,1-3,1.14,8.68,8.68,0,0,1-4-1,18.23,18.23,0,0,1-4-2.86,23.89,23.89,0,0,1-2.15-3.14,20.7,20.7,0,0,1-1.43-3.14,8.9,8.9,0,0,1-.28-2.72,3.71,3.71,0,0,1,1-2.14,4.39,4.39,0,0,1,2.71-1,.73.73,0,0,1,.57.29l2.15,4a.42.42,0,0,0,.14.28.52.52,0,0,1-.14.43l-1.86,1.72a.62.62,0,0,0,0,.71,13.65,13.65,0,0,0,1.71,2.29,15.08,15.08,0,0,0,2.29,1.85C43.71,48.91,44,48.91,44.13,48.62Z"/></g></svg>