<svg id="Layer_1" data-name="Layer 1" xmlns="http://www.w3.org/2000/svg" viewBox="0 0 88.12 90.39"><defs><style>.cls-1{fill:#10889f;}</style></defs><path id="Icon_awesome-trophy" data-name="Icon awesome-trophy" class="cls-1" d="M57.63,34.54h-5V32.63a1.15,1.15,0,0,0-1.14-1.15h-13a1.14,1.14,0,0,0-1.14,1.14h0v1.91h-5a1.15,1.15,0,0,0-1.15,1.15h0v2.68a6.23,6.23,0,0,0,3,4.82,11.3,11.3,0,0,0,5.27,2,10.46,10.46,0,0,0,3.26,3.52v3.45H40.4c-1.69,0-3.07,1-3.07,2.68v.57a.58.58,0,0,0,.58.57H52.07a.58.58,0,0,0,.58-.57v-.58c0-1.69-1.37-2.68-3.06-2.68h-2.3V48.71a10.6,10.6,0,0,0,3.26-3.53,11.15,11.15,0,0,0,5.26-2,6.23,6.23,0,0,0,3-4.82V35.69a1.14,1.14,0,0,0-1.14-1.15ZM36,40.71a3.56,3.56,0,0,1-1.69-2.34v-.76h3.08A16.89,16.89,0,0,0,38,41.73a7.87,7.87,0,0,1-2-1Zm19.75-2.34A3.67,3.67,0,0,1,54,40.71a7.7,7.7,0,0,1-2,1,17.4,17.4,0,0,0,.62-4.12h3.07Z"/></svg>