<svg id="Layer_1" data-name="Layer 1" xmlns="http://www.w3.org/2000/svg" viewBox="0 0 88.12 90.39"><defs><style>.cls-1{fill:#10889f;}</style></defs><g id="Group_605" data-name="Group 605"><path id="Path_769" data-name="Path 769" d="M43.8,51.35H31a2.58,2.58,0,0,0-2.58,2.58v2.76a.35.35,0,0,0,.35.35H46a.35.35,0,0,0,.35-.35V53.93A2.58,2.58,0,0,0,43.8,51.35Zm1.58,4.5a.27.27,0,0,1-.27.27H29.68a.27.27,0,0,1-.27-.27v-1.5a2,2,0,0,1,2-2h12a2,2,0,0,1,2,2Z"/><path id="Path_770" data-name="Path 770" d="M44.06,31.33H30.48a.61.61,0,0,0-.61.61V51.73a.61.61,0,0,0,.61.61H44.06a.61.61,0,0,0,.61-.61V31.94a.61.61,0,0,0-.61-.61Zm-.29,19.59a.55.55,0,0,1-.55.54H31.32a.55.55,0,0,1-.55-.54V32.76a.55.55,0,0,1,.55-.54h11.9a.55.55,0,0,1,.55.54Z"/><path id="Path_771" data-name="Path 771" d="M44.67,35.68l3.22,1.77a3.19,3.19,0,0,1,1.77,2.66c0,1.83.1,9.74.1,9.74l0,.2a1.41,1.41,0,0,1-1.16,1.18,1.32,1.32,0,0,1-1.48-1l0-.71a3.42,3.42,0,0,0-.56-2.24,1.76,1.76,0,0,0-1.83-.2V48h.86a.55.55,0,0,1,.64.63V50s.43,2,2.13,2.07a2.12,2.12,0,0,0,2.32-1.9V39.66A4.11,4.11,0,0,0,49.18,37l-4.51-2.3Z"/><path id="Path_772" data-name="Path 772" d="M41.05,35.09H33.43a.24.24,0,0,0-.24.24v5.36a.24.24,0,0,0,.24.24h7.62a.23.23,0,0,0,.23-.24V35.33a.23.23,0,0,0-.23-.24Zm-.52,4.82a.18.18,0,0,1-.18.18H34.13a.19.19,0,0,1-.19-.18V36.12a.19.19,0,0,1,.19-.18h6.22a.18.18,0,0,1,.18.18Z"/><path id="Path_773" data-name="Path 773" class="cls-1" d="M37.24,42.55s-5.12,4.69-1,6.35a2.6,2.6,0,0,0,1.94,0C42.36,47.24,37.24,42.55,37.24,42.55Zm.7,5.7a1.88,1.88,0,0,1-1.4,0c-3-1.21.7-4.62.7-4.62s3.72,3.41.7,4.62Z"/></g></svg>