<svg id="Layer_1" data-name="Layer 1" xmlns="http://www.w3.org/2000/svg" viewBox="0 0 88.12 90.39"><defs><style>.cls-1{fill:#10889f;}.cls-2{fill:none;stroke:#fff;}</style></defs><g id="Group_576" data-name="Group 576"><g id="Icon_ionic-ios-qr-scanner" data-name="Icon ionic-ios-qr-scanner"><path id="Path_401" data-name="Path 401" class="cls-1" d="M36.82,30H32.68A4.72,4.72,0,0,0,28,34.74v4.14a1,1,0,0,0,2,0v-4.2A2.87,2.87,0,0,1,32.61,32h4.2a1,1,0,1,0,0-2Z"/><path id="Path_402" data-name="Path 402" class="cls-1" d="M52.55,30h-4.2a1,1,0,0,0,0,2h4.2a2.71,2.71,0,0,1,1.87.84,2.74,2.74,0,0,1,.82,1.84v4.2a1,1,0,1,0,2,0v-4.2A4.66,4.66,0,0,0,52.55,30Z"/><path id="Path_403" data-name="Path 403" class="cls-1" d="M36.82,55.05H32.61a2.85,2.85,0,0,1-2.68-2.69v-4.2a1,1,0,0,0-2,0v4.2A4.66,4.66,0,0,0,32.61,57h4.2a1,1,0,1,0,0-2Z"/><path id="Path_404" data-name="Path 404" class="cls-1" d="M56.22,47.18a1,1,0,0,0-1,1v4.2a2.87,2.87,0,0,1-2.69,2.69h-4.2a1,1,0,1,0,0,2h4.13a4.72,4.72,0,0,0,4.73-4.72V48.16A1,1,0,0,0,56.22,47.18Z"/></g><g id="Rectangle_63" data-name="Rectangle 63"><rect class="cls-1" x="33.08" y="35.02" width="8" height="8" rx="3"/><rect class="cls-2" x="33.58" y="35.52" width="7" height="7" rx="2.5"/></g><g id="Rectangle_64" data-name="Rectangle 64"><rect class="cls-1" x="33.08" y="45.02" width="8" height="8" rx="3"/><rect class="cls-2" x="33.58" y="45.52" width="7" height="7" rx="2.5"/></g><g id="Rectangle_65" data-name="Rectangle 65"><rect class="cls-1" x="44.08" y="35.02" width="8" height="8" rx="3"/><rect class="cls-2" x="44.58" y="35.52" width="7" height="7" rx="2.5"/></g><g id="Rectangle_66" data-name="Rectangle 66"><rect class="cls-1" x="44.08" y="45.02" width="8" height="8" rx="3"/><rect class="cls-2" x="44.58" y="45.52" width="7" height="7" rx="2.5"/></g></g></svg>