<svg id="Layer_1" data-name="Layer 1" xmlns="http://www.w3.org/2000/svg" viewBox="0 0 88.12 90.39"><defs><style>.cls-1{fill:#10889f;}</style></defs><g id="Icon_ionic-ios-document" data-name="Icon ionic-ios-document"><path id="Path_399" data-name="Path 399" class="cls-1" d="M47.09,37.28h4a.22.22,0,0,0,.22-.22h0a1.29,1.29,0,0,0-.47-1l-3.32-2.78a1.42,1.42,0,0,0-.9-.32h0a.33.33,0,0,0-.33.32h0v3.17a.83.83,0,0,0,.83.83Z"/><path id="Path_400" data-name="Path 400" class="cls-1" d="M45.13,36.45V33H39.41a1.4,1.4,0,0,0-1.4,1.4h0V49a1.4,1.4,0,0,0,1.4,1.4H49.89a1.4,1.4,0,0,0,1.4-1.4V38.42h-4.2A2,2,0,0,1,45.13,36.45Z"/></g></svg>