<svg id="Layer_1" data-name="Layer 1" xmlns="http://www.w3.org/2000/svg" viewBox="0 0 88.12 90.39"><defs><style>.cls-1{fill:#10889f;}</style></defs><g id="Group_590" data-name="Group 590"><g id="Group_587" data-name="Group 587"><path id="Rectangle_133" data-name="Rectangle 133" d="M40.19,47.05H48a.48.48,0,0,1,.48.49h0A.48.48,0,0,1,48,48H40.19a.48.48,0,0,1-.48-.48h0A.48.48,0,0,1,40.19,47.05Z"/><path id="Path_714" data-name="Path 714" d="M53,36.6a1.13,1.13,0,0,0-1-.71H36a1.1,1.1,0,0,0-1.05.75l-2.34,6.78h23Zm-17.23.62a1,1,0,0,1,.95-.6H51.23a1,1,0,0,1,.94.58l2.16,5.5H33.78Z"/><path id="Path_715" data-name="Path 715" d="M56.91,42.62H31.38a.69.69,0,0,0-.69.69v7.93a.69.69,0,0,0,.69.69H56.91a.69.69,0,0,0,.69-.69V43.31A.69.69,0,0,0,56.91,42.62Zm-.09,7.9a.61.61,0,0,1-.61.61H32.08a.61.61,0,0,1-.61-.61V44a.61.61,0,0,1,.61-.61H56.21a.61.61,0,0,1,.61.61Z"/><path id="Path_716" data-name="Path 716" d="M38.75,51.13H33a.23.23,0,0,0-.23.23v4a.23.23,0,0,0,.23.23h5.79a.23.23,0,0,0,.23-.23v-4A.23.23,0,0,0,38.75,51.13Zm-.57,3.49a.16.16,0,0,1-.16.16H33.69a.16.16,0,0,1-.16-.16V52.09a.16.16,0,0,1,.16-.15H38a.16.16,0,0,1,.16.15Z"/><path id="Path_717" data-name="Path 717" d="M55.37,51.13H49.58a.23.23,0,0,0-.23.23v4a.23.23,0,0,0,.23.23h5.79a.23.23,0,0,0,.23-.23h0v-4A.23.23,0,0,0,55.37,51.13Zm-.57,3.49a.16.16,0,0,1-.16.16H50.31a.16.16,0,0,1-.16-.16V52.09a.16.16,0,0,1,.16-.15h4.33a.16.16,0,0,1,.16.15Z"/><path id="Path_718" data-name="Path 718" d="M56.72,42.62H50.9s-2.61,7.55,6.7,5.72V43.5A.88.88,0,0,0,56.72,42.62Zm-.06,5c-6.82,1.34-4.9-4.19-4.9-4.19H56a.65.65,0,0,1,.65.64h0Z"/><path id="Path_719" data-name="Path 719" d="M30.69,43.58v4.83c9.3,1.84,6.69-5.72,6.69-5.72H31.57A.89.89,0,0,0,30.69,43.58Zm.94.56a.65.65,0,0,1,.65-.64h4.25s1.91,5.53-4.9,4.19Z"/></g><g id="Group_589" data-name="Group 589"><g id="Group_588" data-name="Group 588"><path id="Rectangle_134" data-name="Rectangle 134" class="cls-1" d="M31.22,29.05H57.06a.47.47,0,0,1,.47.47h0a.47.47,0,0,1-.47.47H31.22a.47.47,0,0,1-.46-.47h0A.47.47,0,0,1,31.22,29.05Z"/><path id="Rectangle_135" data-name="Rectangle 135" class="cls-1" d="M31.69,29.83v3.91a.47.47,0,0,1-.47.47h0a.47.47,0,0,1-.46-.47V29.83a.47.47,0,0,1,.46-.47h0A.47.47,0,0,1,31.69,29.83Z"/><path id="Rectangle_136" data-name="Rectangle 136" class="cls-1" d="M34.5,29.83V32.6a.46.46,0,0,1-.47.46h0a.45.45,0,0,1-.46-.46V29.83a.46.46,0,0,1,.46-.47h0A.47.47,0,0,1,34.5,29.83Z"/><rect id="Rectangle_137" data-name="Rectangle 137" class="cls-1" x="36.5" y="29.36" width="0.93" height="2.82" rx="0.45"/><path id="Rectangle_138" data-name="Rectangle 138" class="cls-1" d="M40.11,29.83v3.26a.47.47,0,0,1-.47.47h0a.47.47,0,0,1-.46-.47V29.83a.47.47,0,0,1,.46-.47h0A.47.47,0,0,1,40.11,29.83Z"/><path id="Rectangle_139" data-name="Rectangle 139" class="cls-1" d="M49.11,29.83v3.91a.47.47,0,0,1-.47.47h0a.47.47,0,0,1-.46-.47V29.83a.47.47,0,0,1,.46-.47h0A.47.47,0,0,1,49.11,29.83Z"/><path id="Rectangle_140" data-name="Rectangle 140" class="cls-1" d="M51.92,29.83V32.6a.46.46,0,0,1-.47.46h0A.45.45,0,0,1,51,32.6V29.83a.46.46,0,0,1,.46-.47h0A.47.47,0,0,1,51.92,29.83Z"/><rect id="Rectangle_141" data-name="Rectangle 141" class="cls-1" x="53.92" y="29.36" width="0.93" height="2.82" rx="0.45"/><path id="Rectangle_142" data-name="Rectangle 142" class="cls-1" d="M43.14,29.83V32.6a.46.46,0,0,1-.46.46h0a.46.46,0,0,1-.47-.46V29.83a.47.47,0,0,1,.47-.47h0A.47.47,0,0,1,43.14,29.83Z"/><rect id="Rectangle_143" data-name="Rectangle 143" class="cls-1" x="45.15" y="29.36" width="0.93" height="2.82" rx="0.45"/><path id="Rectangle_144" data-name="Rectangle 144" class="cls-1" d="M57.53,29.83v3.26a.47.47,0,0,1-.47.47h0a.47.47,0,0,1-.46-.47V29.83a.47.47,0,0,1,.46-.47h0A.47.47,0,0,1,57.53,29.83Z"/></g><circle id="Ellipse_72" data-name="Ellipse 72" class="cls-1" cx="31.22" cy="35.64" r="0.62"/><circle id="Ellipse_73" data-name="Ellipse 73" class="cls-1" cx="45.61" cy="33.56" r="0.62"/><circle id="Ellipse_74" data-name="Ellipse 74" class="cls-1" cx="36.97" cy="33.56" r="0.62"/><circle id="Ellipse_75" data-name="Ellipse 75" class="cls-1" cx="34.03" cy="34.63" r="0.62"/><circle id="Ellipse_76" data-name="Ellipse 76" class="cls-1" cx="54.39" cy="33.56" r="0.62"/><circle id="Ellipse_77" data-name="Ellipse 77" class="cls-1" cx="57.06" cy="35.25" r="0.62"/></g></g></svg>