<svg id="Layer_1" data-name="Layer 1" xmlns="http://www.w3.org/2000/svg" viewBox="0 0 88.12 90.39"><defs><style>.cls-1{fill:#10889f;}.cls-2{fill:#fff;}</style></defs><g id="Group_586" data-name="Group 586"><path id="Rectangle_132" data-name="Rectangle 132" d="M34.29,50.48h8.58a.54.54,0,0,1,.53.54h0a.53.53,0,0,1-.53.53H34.29a.54.54,0,0,1-.54-.53h0A.54.54,0,0,1,34.29,50.48Z"/><path id="Path_705" data-name="Path 705" d="M48.36,39a1.22,1.22,0,0,0-1.14-.78H29.62a1.23,1.23,0,0,0-1.16.82l-2.57,7.47H51.27Zm-19,.68A1.1,1.1,0,0,1,30.42,39h16a1.09,1.09,0,0,1,1,.63l2.38,6.06H27.21Z"/><path id="Path_706" data-name="Path 706" d="M52.71,45.6H24.57a.76.76,0,0,0-.76.76V55.1a.76.76,0,0,0,.76.76H52.71a.76.76,0,0,0,.76-.76V46.36A.76.76,0,0,0,52.71,45.6Zm-.1,8.71a.67.67,0,0,1-.67.67H25.34a.67.67,0,0,1-.67-.67V47.16a.67.67,0,0,1,.67-.67h26.6a.67.67,0,0,1,.67.67Z"/><path id="Path_707" data-name="Path 707" d="M32.7,55H26.32a.26.26,0,0,0-.26.25v4.4a.26.26,0,0,0,.26.26H32.7a.26.26,0,0,0,.25-.26v-4.4A.25.25,0,0,0,32.7,55Zm-.63,3.85a.18.18,0,0,1-.18.17H27.12a.18.18,0,0,1-.17-.17V56a.18.18,0,0,1,.17-.18H31.9a.18.18,0,0,1,.17.18Z"/><path id="Path_708" data-name="Path 708" d="M51,55H44.63a.25.25,0,0,0-.25.25v4.4a.26.26,0,0,0,.25.26H51a.26.26,0,0,0,.26-.26v-4.4A.26.26,0,0,0,51,55Zm-.63,3.85a.17.17,0,0,1-.17.17H45.44a.18.18,0,0,1-.18-.17V56a.19.19,0,0,1,.18-.18h4.77a.18.18,0,0,1,.17.18Z"/><path id="Path_709" data-name="Path 709" d="M52.5,45.6H46.09s-2.87,8.33,7.38,6.3V46.57A1,1,0,0,0,52.5,45.6Zm-.07,5.5c-7.5,1.48-5.4-4.61-5.4-4.61h4.69a.7.7,0,0,1,.71.71Z"/><path id="Path_710" data-name="Path 710" d="M23.81,46.65V52c10.26,2,7.38-6.3,7.38-6.3H24.78A1,1,0,0,0,23.81,46.65Zm1,.63a.71.71,0,0,1,.71-.71h4.69s2.11,6.1-5.4,4.62Z"/><path id="Path_711" data-name="Path 711" class="cls-1" d="M55.25,38.27c-.09.41-.15.84-.27,1.24a7.41,7.41,0,0,1-2.31,3.38,11.71,11.71,0,0,1-2.76,1.8.7.7,0,0,1-.63,0A10.61,10.61,0,0,1,45,41.2,6.12,6.12,0,0,1,44,37.68V34c0-.41.08-.52.47-.65l4.87-1.64.17-.08h.27l.12,0,4.9,1.66a.8.8,0,0,1,.5.36Zm-10.36-2v1.39a5.13,5.13,0,0,0,.82,2.82,9.44,9.44,0,0,0,3.79,3.24.33.33,0,0,0,.24,0,10.19,10.19,0,0,0,3.13-2.4,5.09,5.09,0,0,0,1.4-3.14c.06-1.27,0-2.54,0-3.82a.26.26,0,0,0-.22-.29l-4.32-1.45a.65.65,0,0,0-.34,0l-4.38,1.48a.22.22,0,0,0-.18.25C44.89,35,44.89,35.65,44.89,36.29Z"/><path id="Path_712" data-name="Path 712" class="cls-2" d="M44.89,36.29V34.35a.22.22,0,0,1,.17-.25l4.39-1.47a.62.62,0,0,1,.33,0l4.32,1.45a.26.26,0,0,1,.22.29c0,1.27,0,2.55,0,3.81a5.23,5.23,0,0,1-1.4,3.15,10.35,10.35,0,0,1-3.14,2.39.29.29,0,0,1-.24,0,9.39,9.39,0,0,1-3.79-3.25,5.07,5.07,0,0,1-.82-2.81Zm4.28,2.61L49,38.71l-1.28-1.6-.1-.12a.48.48,0,0,0-.66-.12h0a.47.47,0,0,0-.08.66l0,0c.58.74,1.17,1.48,1.76,2.21.3.38.55.39.9,0l3.06-3.06c.31-.31.35-.58.12-.8s-.48-.17-.78.13Z"/><path id="Path_713" data-name="Path 713" class="cls-1" d="M49.17,38.9,52,36.1c.3-.3.56-.34.78-.13s.19.49-.12.8l-3.06,3.06c-.35.35-.59.34-.9,0l-1.77-2.2a.48.48,0,0,1,0-.67l0,0a.49.49,0,0,1,.67.08v0a.58.58,0,0,1,.1.12L49,38.72A1.54,1.54,0,0,1,49.17,38.9Z"/></g></svg>