<svg id="Layer_1" data-name="Layer 1" xmlns="http://www.w3.org/2000/svg" viewBox="0 0 88.12 90.39"><defs><style>.cls-1{fill:#10889f;}.cls-2{fill:#1e2222;}</style></defs><g id="Icon_ionic-ios-add-circle-outline" data-name="Icon ionic-ios-add-circle-outline"><path id="Path_395" data-name="Path 395" class="cls-1" d="M49.69,42.5H47V39.82a.58.58,0,1,0-1.15,0V42.5H43.16a.57.57,0,0,0-.58.53v0a.56.56,0,0,0,.54.58h2.73v2.68a.56.56,0,0,0,.54.58h0a.57.57,0,0,0,.58-.57h0V43.66h2.69a.58.58,0,0,0,0-1.16Z"/><path id="Path_396" data-name="Path 396" class="cls-2" d="M46.42,36.59a6.49,6.49,0,1,1-4.59,1.9,6.49,6.49,0,0,1,4.59-1.9m0-1a7.5,7.5,0,1,0,7.5,7.5h0A7.5,7.5,0,0,0,46.42,35.58Z"/></g></svg>