<svg id="Layer_1" data-name="Layer 1" xmlns="http://www.w3.org/2000/svg" viewBox="0 0 88.12 90.39"><g id="Group_609" data-name="Group 609"><path id="Rectangle_151" data-name="Rectangle 151" d="M39.72,42.35H46a.4.4,0,0,1,.39.39h0a.4.4,0,0,1-.39.4H39.72a.4.4,0,0,1-.4-.4h0A.4.4,0,0,1,39.72,42.35Z"/><path id="Path_787" data-name="Path 787" d="M50.08,33.87a.9.9,0,0,0-.84-.57h-13a.91.91,0,0,0-.85.6l-1.9,5.5H52.21Zm-14,.5a.82.82,0,0,1,.77-.49h11.8a.83.83,0,0,1,.77.47l1.75,4.46H34.51Z"/><path id="Path_788" data-name="Path 788" d="M53.28,38.75H32.57a.56.56,0,0,0-.56.56v6.44a.56.56,0,0,0,.56.56H53.28a.56.56,0,0,0,.56-.56V39.31A.56.56,0,0,0,53.28,38.75Zm-.07,6.41a.5.5,0,0,1-.5.5H33.13a.49.49,0,0,1-.49-.5V39.9a.49.49,0,0,1,.49-.49H52.72a.51.51,0,0,1,.5.49Z"/><path id="Path_789" data-name="Path 789" d="M38.55,45.66h-4.7a.19.19,0,0,0-.19.19h0v3.24a.19.19,0,0,0,.19.18h4.7a.19.19,0,0,0,.19-.18V45.85a.19.19,0,0,0-.19-.19Zm-.46,2.83a.13.13,0,0,1-.13.13H34.44a.13.13,0,0,1-.13-.13V46.44a.13.13,0,0,1,.13-.13H38a.13.13,0,0,1,.13.13Z"/><path id="Path_790" data-name="Path 790" d="M52,45.66h-4.7a.18.18,0,0,0-.18.19v3.24a.18.18,0,0,0,.18.18H52a.19.19,0,0,0,.19-.18V45.85A.19.19,0,0,0,52,45.66Zm-.46,2.83a.13.13,0,0,1-.13.13H47.93a.13.13,0,0,1-.13-.13V46.44a.13.13,0,0,1,.13-.13h3.51a.13.13,0,0,1,.13.13Z"/><path id="Path_791" data-name="Path 791" d="M53.13,38.75H48.41s-2.12,6.13,5.43,4.64V39.47A.71.71,0,0,0,53.13,38.75Zm-.05,4c-5.53,1.09-4-3.4-4-3.4h3.45a.53.53,0,0,1,.53.53h0Z"/><path id="Path_792" data-name="Path 792" d="M32,39.53v3.93c7.55,1.49,5.43-4.64,5.43-4.64H32.72a.71.71,0,0,0-.71.71Zm.76.46a.52.52,0,0,1,.53-.52h3.45s1.55,4.49-4,3.4Z"/></g></svg>