<svg id="Layer_1" data-name="Layer 1" xmlns="http://www.w3.org/2000/svg" viewBox="0 0 88.12 90.39"><defs><style>.cls-1{fill:#10889f;}</style></defs><path id="Icon_awesome-car-alt" data-name="Icon awesome-car-alt" class="cls-1" d="M52,41.89l-.51-1.28-.9-2.27a5.07,5.07,0,0,0-4.74-3.2H40a5.07,5.07,0,0,0-4.73,3.2l-.91,2.27-.51,1.28A2.89,2.89,0,0,0,32,44.6v2.18a2.86,2.86,0,0,0,.73,1.91v2.46a1.45,1.45,0,0,0,1.45,1.45h1.46a1.46,1.46,0,0,0,1.46-1.45V49.69H48.75v1.46A1.45,1.45,0,0,0,50.2,52.6h1.46a1.45,1.45,0,0,0,1.45-1.45V48.69a2.86,2.86,0,0,0,.73-1.91V44.6A2.89,2.89,0,0,0,52,41.89ZM38,39.42a2.18,2.18,0,0,1,2-1.37h5.77a2.18,2.18,0,0,1,2,1.37l.9,2.27H37.11Zm-2.36,7.35a1.36,1.36,0,0,1-1.45-1.28.49.49,0,0,1,0-.17,1.37,1.37,0,0,1,1.29-1.45h.16a2.78,2.78,0,0,1,2.18,2.18C37.83,46.92,36.52,46.77,35.65,46.77Zm14.55,0c-.87,0-2.18.15-2.18-.72a2.82,2.82,0,0,1,2.18-2.18,1.38,1.38,0,0,1,1.46,1.29v.16a1.37,1.37,0,0,1-1.29,1.45Z"/></svg>