<svg id="Layer_1" data-name="Layer 1" xmlns="http://www.w3.org/2000/svg" viewBox="0 0 88.12 90.39"><defs><style>.cls-1{fill:#fff;}.cls-2{fill:none;stroke:#10708d;stroke-miterlimit:10;stroke-width:1.1px;}.cls-3{fill:#10889f;}</style></defs><g id="Group_585" data-name="Group 585"><g id="Group_608" data-name="Group 608"><path id="Path_782" data-name="Path 782" d="M28.53,55.14a1.36,1.36,0,0,1-1-1,2.16,2.16,0,0,1,0-.35V30.87a1.29,1.29,0,0,1,1.2-1.37h12A1.28,1.28,0,0,1,42,30.69v9.86l.21-.08a7.68,7.68,0,0,1,10.19,3.75A7.41,7.41,0,0,1,53,46.11c0,.24.08.48.12.72V48a1.6,1.6,0,0,0,0,.21,7.65,7.65,0,0,1-5.67,6.63c-.47.12-1,.18-1.44.26H44.91c-.53-.1-1.07-.17-1.59-.31s-.93-.33-1.4-.5a1.45,1.45,0,0,1-1,.82Zm7.5-.87h4.62a.43.43,0,0,0,.2,0,1.22,1.22,0,0,0,.28-.32s-.1-.18-.18-.24A7.7,7.7,0,0,1,39.21,43,7.5,7.5,0,0,1,41,41.2a.42.42,0,0,0,.19-.37q0-4.94,0-9.89c0-.44-.14-.58-.58-.58H36V35a1.29,1.29,0,1,1-2.57.14V30.36H28.93c-.45,0-.59.14-.59.6V53.69c0,.47.14.6.6.6h4.53V49.8a3.1,3.1,0,0,1,0-.43,1.24,1.24,0,0,1,1-1,1.27,1.27,0,0,1,1.48,1,1.51,1.51,0,0,1,0,.3v4.61Zm2.57-6.82a6.84,6.84,0,1,0,6.84-6.84,6.83,6.83,0,0,0-6.84,6.84h0ZM34.34,30.36a1.76,1.76,0,0,0,0,.19V35a1.23,1.23,0,0,0,0,.2.42.42,0,0,0,.8.05.8.8,0,0,0,0-.27V30.56c0-.07,0-.13,0-.2Zm.82,23.92a1.28,1.28,0,0,0,0-.17V49.68a.67.67,0,0,0,0-.24.35.35,0,0,0-.4-.27.79.79,0,0,0-.38.27c0,.07,0,.21,0,.31V54c0,.08,0,.17,0,.27Z"/><path id="Path_783" data-name="Path 783" class="cls-1" d="M36,42.31V40.24a1.28,1.28,0,0,0-1.24-1.33h0a1.27,1.27,0,0,0-1.3,1.24.19.19,0,0,0,0,.08c0,1.4,0,2.79,0,4.18a1.29,1.29,0,1,0,2.57,0C36,43.72,36,43,36,42.31Zm-6-4V33.8a.42.42,0,0,0-.37-.45h-.06a.44.44,0,0,0-.42.43h0v8.8c0,.09,0,.21,0,.27a.74.74,0,0,0,.34.29.5.5,0,0,0,.38-.15.55.55,0,0,0,.1-.37Zm0-6.43v-.22a.42.42,0,0,0-.41-.42.43.43,0,0,0-.43.38,2.09,2.09,0,0,0,0,.25c0,.44.15.66.44.65s.41-.21.41-.64Z"/><path id="Path_784" data-name="Path 784" d="M36,42.31c0,.7,0,1.4,0,2.1a1.28,1.28,0,1,1-2.56.11.21.21,0,0,1,0-.11c0-1.39,0-2.78,0-4.18a1.26,1.26,0,0,1,1.21-1.32h.08A1.28,1.28,0,0,1,36,40.2v2.11Zm-1.71,0v2.1a.42.42,0,0,0,.36.47h0a.42.42,0,0,0,.44-.46v-4a1,1,0,0,0,0-.3.4.4,0,0,0-.47-.32c-.23,0-.36.2-.36.49v2Z"/><path id="Path_785" data-name="Path 785" d="M30,38.28v4.35a.55.55,0,0,1-.1.37.5.5,0,0,1-.38.15.74.74,0,0,1-.34-.29c0-.06,0-.18,0-.27v-8.8a.44.44,0,0,1,.42-.44h0a.41.41,0,0,1,.43.39s0,0,0,.06c0,.62,0,1.23,0,1.85Z"/><path id="Path_786" data-name="Path 786" d="M30,31.85c0,.43-.13.64-.41.64s-.44-.21-.44-.65a2.09,2.09,0,0,1,0-.25.42.42,0,0,1,.42-.38.44.44,0,0,1,.42.42Z"/><circle id="Ellipse_88" data-name="Ellipse 88" class="cls-2" cx="45.43" cy="47.45" r="7.2"/><path id="_" data-name=" " class="cls-3" d="M47.07,50.2l-1.64-2.14c-.16-.24-.33-.33-.33-.41a1.86,1.86,0,0,0,1-.49,1,1,0,0,0,.32-.66h.82L47.4,46h-1a1.44,1.44,0,0,0-.32-.82h1.06l.17-.49H43.63l-.17.33h.82a1.49,1.49,0,0,1,.9.24,1.29,1.29,0,0,1,.33.58H43.62l-.16.49h2a1.63,1.63,0,0,1-.33.49,2,2,0,0,1-1.15.25h-.41v.57a1.07,1.07,0,0,1,.49.17c.17.08.25.24.41.41l1.4,1.88,1.23.08Z"/><path id="Path_703" data-name="Path 703" class="cls-3" d="M40.12,47.62a5.53,5.53,0,0,1,.78-2.91c.16-.26.36-.33.56-.22s.24.35.08.62a4.46,4.46,0,0,0,0,4.68.44.44,0,0,1,0,.5.38.38,0,0,1-.52.11h0a.47.47,0,0,1-.13-.15,5.08,5.08,0,0,1-.7-1.8C40.17,48.12,40.15,47.79,40.12,47.62Z"/><path id="Path_704" data-name="Path 704" class="cls-3" d="M50.74,47.45a5.76,5.76,0,0,1-.82,2.74.54.54,0,0,1-.26.24.55.55,0,0,1-.39-.12c-.14-.12-.1-.29,0-.45a11.4,11.4,0,0,0,.57-1.4,4.34,4.34,0,0,0-.47-3.23L49.23,45a.38.38,0,0,1,.11-.53h0a.36.36,0,0,1,.49.11l0,0a8.24,8.24,0,0,1,.6,1.32C50.58,46.46,50.67,47,50.74,47.45Z"/></g></g></svg>