<svg id="Layer_1" data-name="Layer 1" xmlns="http://www.w3.org/2000/svg" viewBox="0 0 88.12 90.39"><defs><style>.cls-1,.cls-3{fill:none;}.cls-1{stroke:#fff;stroke-width:1.44px;}.cls-1,.cls-4{stroke-miterlimit:10;}.cls-2{fill:#fff;}.cls-3,.cls-4{stroke:#10889f;}.cls-3{stroke-width:0.72px;}.cls-4{fill:#10889f;stroke-width:0.25px;}</style></defs><g id="Group_596" data-name="Group 596"><g id="Group_594" data-name="Group 594"><path id="Rectangle_146" data-name="Rectangle 146" d="M33.72,45.63h8.59a.53.53,0,0,1,.53.53h0a.54.54,0,0,1-.53.54H33.72a.54.54,0,0,1-.53-.54h0A.53.53,0,0,1,33.72,45.63Z"/><path id="Path_734" data-name="Path 734" d="M47.8,34.11a1.22,1.22,0,0,0-1.14-.78H29.06a1.23,1.23,0,0,0-1.16.82l-2.57,7.48H50.71Zm-19,.68a1.12,1.12,0,0,1,1.05-.66h16a1.1,1.1,0,0,1,1,.63l2.38,6.07H26.65Z"/><path id="Path_735" data-name="Path 735" d="M52.15,40.74H24a.76.76,0,0,0-.76.76v8.75A.76.76,0,0,0,24,51H52.15a.76.76,0,0,0,.76-.76V41.5A.76.76,0,0,0,52.15,40.74Zm-.1,8.71a.67.67,0,0,1-.67.67H24.78a.67.67,0,0,1-.67-.67V42.3a.67.67,0,0,1,.67-.67h26.6a.67.67,0,0,1,.67.67Z"/><path id="Path_736" data-name="Path 736" d="M32.14,50.12H25.76a.26.26,0,0,0-.26.25v4.4a.26.26,0,0,0,.26.26h6.38a.26.26,0,0,0,.25-.26v-4.4A.25.25,0,0,0,32.14,50.12ZM31.51,54a.17.17,0,0,1-.18.17H26.56a.18.18,0,0,1-.18-.17V51.18a.18.18,0,0,1,.18-.17h4.77a.18.18,0,0,1,.18.17Z"/><path id="Path_737" data-name="Path 737" d="M50.45,50.12H44.07a.25.25,0,0,0-.25.25v4.4a.26.26,0,0,0,.25.26h6.38a.26.26,0,0,0,.26-.26v-4.4A.26.26,0,0,0,50.45,50.12ZM49.82,54a.16.16,0,0,1-.17.17H44.88A.17.17,0,0,1,44.7,54V51.18a.17.17,0,0,1,.18-.17h4.77a.17.17,0,0,1,.17.17Z"/><path id="Path_738" data-name="Path 738" d="M51.94,40.74H45.53s-2.87,8.33,7.38,6.3V41.71A1,1,0,0,0,51.94,40.74Zm-.07,5.5c-7.51,1.48-5.4-4.62-5.4-4.62h4.69a.71.71,0,0,1,.71.71h0Z"/><path id="Path_739" data-name="Path 739" d="M23.25,41.8v5.33c10.26,2,7.38-6.3,7.38-6.3H24.22A1,1,0,0,0,23.25,41.8Zm1,.62a.71.71,0,0,1,.71-.71h4.69s2.11,6.1-5.4,4.62Z"/></g><circle id="Ellipse_80" data-name="Ellipse 80" class="cls-1" cx="49.67" cy="33.46" r="6.63"/><circle id="Ellipse_81" data-name="Ellipse 81" class="cls-2" cx="49.67" cy="33.46" r="5.46"/><path id="Path_740" data-name="Path 740" class="cls-3" d="M49.67,27.29a6.18,6.18,0,1,0,6.18,6.17h0a6.17,6.17,0,0,0-6.17-6.17ZM49,39.19a5.76,5.76,0,1,1,6.37-5.07h0A5.77,5.77,0,0,1,49,39.19Z"/><g id="Group_595" data-name="Group 595"><path id="Path_741" data-name="Path 741" class="cls-4" d="M48.17,30.61a9.48,9.48,0,0,1,1.5-.12,2.52,2.52,0,0,1,1.7.51,1.64,1.64,0,0,1,.54,1.27,1.85,1.85,0,0,1-.47,1.3,2.53,2.53,0,0,1-1.86.66,2.68,2.68,0,0,1-.63,0v2.43h-.78ZM49,33.54a3.49,3.49,0,0,0,.65.06c.94,0,1.52-.46,1.52-1.3s-.57-1.19-1.43-1.19a3,3,0,0,0-.74.06Z"/></g></g></svg>