<svg id="Layer_1" data-name="Layer 1" xmlns="http://www.w3.org/2000/svg" viewBox="0 0 88.12 90.39"><defs><style>.cls-1,.cls-3{fill:none;}.cls-1{stroke:#fff;stroke-miterlimit:10;stroke-width:1.44px;}.cls-2{fill:#fff;}.cls-3{stroke:#10889f;stroke-width:0.72px;}.cls-4{fill:#10889f;}</style></defs><g id="Group_598" data-name="Group 598"><g id="Group_597" data-name="Group 597"><path id="Rectangle_147" data-name="Rectangle 147" d="M33.48,50.38h8.58a.54.54,0,0,1,.54.53h0a.54.54,0,0,1-.54.54H33.48a.54.54,0,0,1-.54-.54h0A.54.54,0,0,1,33.48,50.38Z"/><path id="Path_742" data-name="Path 742" d="M47.56,38.86a1.24,1.24,0,0,0-1.14-.78H28.82a1.22,1.22,0,0,0-1.16.83l-2.58,7.47H50.46Zm-19,.69a1.13,1.13,0,0,1,1.06-.67h16a1.13,1.13,0,0,1,1,.63l2.37,6.07H26.41Z"/><path id="Path_743" data-name="Path 743" d="M51.9,45.49H23.77a.76.76,0,0,0-.76.76V55a.76.76,0,0,0,.76.76H51.9a.77.77,0,0,0,.77-.76V46.25A.77.77,0,0,0,51.9,45.49Zm-.09,8.71a.67.67,0,0,1-.67.67H24.54a.69.69,0,0,1-.68-.67V47.05a.69.69,0,0,1,.68-.67h26.6a.67.67,0,0,1,.67.67Z"/><path id="Path_744" data-name="Path 744" d="M31.89,54.87H25.51a.26.26,0,0,0-.25.26v4.4a.25.25,0,0,0,.25.25h6.38a.25.25,0,0,0,.25-.25v-4.4A.26.26,0,0,0,31.89,54.87Zm-.63,3.85a.18.18,0,0,1-.17.18H26.31a.18.18,0,0,1-.17-.18V55.93a.18.18,0,0,1,.17-.17h4.78a.18.18,0,0,1,.17.17Z"/><path id="Path_745" data-name="Path 745" d="M50.21,54.87H43.83a.26.26,0,0,0-.26.26v4.4a.26.26,0,0,0,.26.25h6.38a.25.25,0,0,0,.25-.25v-4.4A.26.26,0,0,0,50.21,54.87Zm-.63,3.85a.18.18,0,0,1-.18.18H44.63a.18.18,0,0,1-.17-.18V55.93a.18.18,0,0,1,.17-.17H49.4a.18.18,0,0,1,.18.17Z"/><path id="Path_746" data-name="Path 746" d="M51.69,45.49h-6.4s-2.88,8.33,7.38,6.3V46.46A1,1,0,0,0,51.69,45.49ZM51.63,51c-7.51,1.48-5.4-4.61-5.4-4.61h4.69a.71.71,0,0,1,.71.71h0Z"/><path id="Path_747" data-name="Path 747" d="M23,46.55v5.33c10.25,2,7.37-6.3,7.37-6.3H24A1,1,0,0,0,23,46.55Zm1,.63a.71.71,0,0,1,.72-.71h4.69s2.1,6.1-5.4,4.61Z"/></g><circle id="Ellipse_82" data-name="Ellipse 82" class="cls-1" cx="49.43" cy="38.22" r="6.63"/><circle id="Ellipse_83" data-name="Ellipse 83" class="cls-2" cx="49.43" cy="38.22" r="5.46"/><path id="Path_748" data-name="Path 748" class="cls-3" d="M49.43,32a6.18,6.18,0,1,0,6.17,6.18h0A6.18,6.18,0,0,0,49.43,32Zm-.65,11.9a5.76,5.76,0,1,1,6.37-5.07h0a5.77,5.77,0,0,1-6.37,5.07Z"/><path id="_2" data-name=" 2" class="cls-4" d="M51.28,41.61l-1.85-2.42c-.19-.28-.38-.37-.38-.46a2.17,2.17,0,0,0,1.12-.56,1.17,1.17,0,0,0,.37-.74h.93l.19-.56H50.54a1.59,1.59,0,0,0-.37-.93h1.21l.18-.56H47.38l-.19.37h.93a1.68,1.68,0,0,1,1,.28,1.42,1.42,0,0,1,.37.65H47.38l-.19.56h2.23a1.88,1.88,0,0,1-.37.56,2.28,2.28,0,0,1-1.3.28h-.47v.65a1.37,1.37,0,0,1,.56.18c.19.1.28.28.47.47l1.58,2.14,1.39.09Z"/></g></svg>