<svg id="Layer_1" data-name="Layer 1" xmlns="http://www.w3.org/2000/svg" viewBox="0 0 88.12 90.39"><defs><style>.cls-1{fill:#10889f;}.cls-2{fill:#fff;}.cls-3{fill:none;stroke:#fff;stroke-miterlimit:10;stroke-width:1.44px;}.cls-4{stroke:#000;stroke-width:0.72px;}</style></defs><g id="Group_592" data-name="Group 592"><g id="Group_591" data-name="Group 591"><path id="Path_720" data-name="Path 720" d="M42.46,51.19H30.72a1.64,1.64,0,0,1-1.79-1.47,1.71,1.71,0,0,1,0-.32V34.58a1.65,1.65,0,0,1,1.47-1.79,1.22,1.22,0,0,1,.33,0H54.21A1.63,1.63,0,0,1,56,34.26a1.71,1.71,0,0,1,0,.32Q56,42,56,49.37a1.64,1.64,0,0,1-1.44,1.83,1.34,1.34,0,0,1-.4,0H42.46ZM43,33.86V50.11H54.17c.59,0,.75-.16.75-.77q0-7.34,0-14.68c0-.65-.15-.8-.79-.8H43Zm-1.11,0H30.75c-.58,0-.75.17-.75.74V49.39c0,.56.18.73.72.73h11.2Z"/><path id="Path_721" data-name="Path 721" class="cls-1" d="M49,41.46h3.69c.43,0,.71.3.61.65a.59.59,0,0,1-.65.42H45.31c-.42,0-.68-.22-.66-.55s.25-.52.66-.52Z"/><path id="Path_722" data-name="Path 722" d="M49,45.78h2c.43,0,.68.2.68.54s-.24.55-.66.55H46.92c-.42,0-.67-.22-.66-.55s.25-.54.68-.54Z"/><path id="Path_723" data-name="Path 723" class="cls-1" d="M49,37.13h2c.4,0,.65.2.66.51s-.24.55-.67.55H46.94c-.41,0-.65-.2-.66-.51s.24-.55.66-.55C47.62,37.12,48.31,37.13,49,37.13Z"/><path id="Path_724" data-name="Path 724" class="cls-1" d="M37.79,41.85l.29.17a4.44,4.44,0,0,1,2.21,4.33.55.55,0,0,1-.56.51H32.37c-.55,0-.71-.18-.73-.73a4.42,4.42,0,0,1,2.53-4.29,2.76,2.76,0,0,1-.84-2.58,2.65,2.65,0,0,1,1-1.58,2.71,2.71,0,0,1,3.53.19C38.94,38.93,38.93,40.28,37.79,41.85Zm-5.06,3.92h6.48a3.24,3.24,0,0,0-6.47-.11v.11Zm3.19-4.31A1.63,1.63,0,1,0,36,38.2a1.62,1.62,0,0,0-1.67,1.58h0A1.63,1.63,0,0,0,35.92,41.46Z"/><path id="Path_725" data-name="Path 725" class="cls-2" d="M32.73,45.77a3.24,3.24,0,1,1,6.47-.11v.11Z"/><path id="Path_726" data-name="Path 726" class="cls-2" d="M35.92,41.46a1.64,1.64,0,1,1,1.68-1.59,1.65,1.65,0,0,1-1.68,1.59Z"/></g><circle id="Ellipse_78" data-name="Ellipse 78" class="cls-3" cx="50.67" cy="50.12" r="6.63"/><circle id="Ellipse_79" data-name="Ellipse 79" class="cls-2" cx="50.67" cy="50.12" r="5.46"/><path id="Path_727" data-name="Path 727" class="cls-4" d="M50.67,44a6.18,6.18,0,1,0,6.18,6.17h0A6.18,6.18,0,0,0,50.68,44ZM50,55.85a5.76,5.76,0,1,1,6.37-5.07h0A5.78,5.78,0,0,1,50,55.85Z"/><path id="Path_728" data-name="Path 728" d="M50,51.06l2.79-2.8c.3-.3.56-.34.78-.13s.19.49-.12.8L50.4,52c-.35.35-.59.34-.9,0l-1.76-2.2a.47.47,0,0,1,0-.67l0,0a.49.49,0,0,1,.67.08l0,0,.1.12,1.28,1.6Z"/></g></svg>