<svg id="Layer_1" data-name="Layer 1" xmlns="http://www.w3.org/2000/svg" viewBox="0 0 88.12 90.39"><defs><style>.cls-1{fill:#10889f;}.cls-2{fill:#fff;}</style></defs><g id="Group_603" data-name="Group 603"><path id="Rectangle_150" data-name="Rectangle 150" d="M37.08,47h8.58a.54.54,0,0,1,.54.53h0a.54.54,0,0,1-.54.54H37.08a.54.54,0,0,1-.54-.54h0A.54.54,0,0,1,37.08,47Z"/><path id="Path_759" data-name="Path 759" d="M51.15,35.52A1.22,1.22,0,0,0,50,34.74H32.41a1.22,1.22,0,0,0-1.15.82L28.68,43H54.06Zm-19,.69a1.11,1.11,0,0,1,1.05-.67h16a1.14,1.14,0,0,1,1,.63l2.37,6.07H30Z"/><path id="Path_760" data-name="Path 760" d="M55.5,42.15H27.37a.77.77,0,0,0-.77.76v8.75a.77.77,0,0,0,.77.76H55.5a.76.76,0,0,0,.76-.76V42.91A.76.76,0,0,0,55.5,42.15Zm-.1,8.71a.67.67,0,0,1-.67.67H28.13a.67.67,0,0,1-.67-.67V43.71a.67.67,0,0,1,.67-.67h26.6a.67.67,0,0,1,.67.67Z"/><path id="Path_761" data-name="Path 761" d="M35.49,51.53H29.11a.26.26,0,0,0-.26.26v4.4a.26.26,0,0,0,.26.25h6.38a.25.25,0,0,0,.25-.25v-4.4A.26.26,0,0,0,35.49,51.53Zm-.63,3.85a.18.18,0,0,1-.18.18H29.92a.18.18,0,0,1-.18-.18V52.59a.18.18,0,0,1,.18-.17h4.77a.18.18,0,0,1,.17.17Z"/><path id="Path_762" data-name="Path 762" d="M53.81,51.53H47.42a.26.26,0,0,0-.25.26v4.4a.25.25,0,0,0,.25.25h6.39a.25.25,0,0,0,.25-.25v-4.4A.26.26,0,0,0,53.81,51.53Zm-.63,3.85a.18.18,0,0,1-.18.18H48.23a.18.18,0,0,1-.18-.18V52.59a.18.18,0,0,1,.18-.17H53a.18.18,0,0,1,.18.17Z"/><path id="Path_763" data-name="Path 763" d="M55.29,42.15h-6.4s-2.88,8.33,7.37,6.3V43.12A1,1,0,0,0,55.29,42.15Zm-.06,5.5c-7.51,1.48-5.4-4.62-5.4-4.62h4.69a.71.71,0,0,1,.71.72Z"/><path id="Path_764" data-name="Path 764" d="M26.6,43.21v5.33c10.26,2,7.38-6.3,7.38-6.3h-6.4A1,1,0,0,0,26.6,43.21Zm1,.63a.71.71,0,0,1,.71-.71H33s2.11,6.1-5.4,4.61Z"/><path id="Path_765" data-name="Path 765" class="cls-1" d="M46.68,28.63c.3.06.62.1.92.18A4.87,4.87,0,0,1,51.13,34a4.46,4.46,0,0,1-.13.73.3.3,0,0,0,.09.33l5.57,5.56,2.6,2.61a2.37,2.37,0,0,1,.22,3,2.33,2.33,0,0,1-3.29.38,1.24,1.24,0,0,1-.21-.18l-5.06-5.06L47.84,38.3a.26.26,0,0,0-.3-.07,4.87,4.87,0,0,1-6-3.45,4.15,4.15,0,0,1-.11-.48c0-.13,0-.26-.07-.39v-.83a1.16,1.16,0,0,0,0-.18A7.41,7.41,0,0,1,42,31a.75.75,0,0,1,.12.14l1.6,1.65a.32.32,0,0,0,.21.08l1.21-.3a.28.28,0,0,0,.15-.15c.11-.38.21-.76.33-1.14a.24.24,0,0,0-.07-.28l-1.63-1.67-.13-.15,1.45-.45.62-.11Zm-4.17,4.54a.5.5,0,0,0,0,.12,3.8,3.8,0,0,0,3.57,4,3.75,3.75,0,0,0,1.72-.3.28.28,0,0,1,.37.08c2.84,2.84,5.68,5.69,8.52,8.52l.21.2a1.2,1.2,0,0,0,1.69-.14,1,1,0,0,0,.22-.4A1.21,1.21,0,0,0,58.42,44l-8.56-8.56a.28.28,0,0,1-.08-.38A3.66,3.66,0,0,0,50,32.87a3.78,3.78,0,0,0-3.5-3.15h-.61a10.57,10.57,0,0,0,.9,1,.21.21,0,0,1,.06.25c-.23.78-.45,1.57-.67,2.36a.21.21,0,0,1-.18.17c-.73.18-1.47.35-2.2.56a.47.47,0,0,1-.54-.16c-.25-.26-.52-.49-.77-.72Z"/><path id="Path_766" data-name="Path 766" class="cls-2" d="M42.51,33.17c.25.23.52.46.76.72a.47.47,0,0,0,.54.15c.73-.2,1.47-.38,2.2-.56a.2.2,0,0,0,.18-.16c.22-.79.45-1.58.68-2.36a.25.25,0,0,0-.07-.26,11.87,11.87,0,0,1-.9-1h.61A3.78,3.78,0,0,1,50,32.86,3.65,3.65,0,0,1,49.77,35a.3.3,0,0,0,.08.39q4.29,4.28,8.56,8.56a1.23,1.23,0,0,1,.38,1.31,1.2,1.2,0,0,1-1.52.76,1.16,1.16,0,0,1-.39-.22,1.34,1.34,0,0,1-.21-.2q-4.28-4.26-8.53-8.53a.29.29,0,0,0-.37-.07,3.8,3.8,0,0,1-5-2,3.87,3.87,0,0,1-.3-1.71Z"/></g></svg>