<svg id="Layer_1" data-name="Layer 1" xmlns="http://www.w3.org/2000/svg" viewBox="0 0 88.12 90.39"><defs><style>.cls-1{fill:#fff;}.cls-2{fill:#10889f;stroke:#10889f;stroke-miterlimit:10;stroke-width:0.25px;}</style></defs><g id="Group_602" data-name="Group 602"><path id="Rectangle_149" data-name="Rectangle 149" d="M38.76,47h8.59a.53.53,0,0,1,.53.53h0a.54.54,0,0,1-.53.54H38.76a.54.54,0,0,1-.53-.54h0A.53.53,0,0,1,38.76,47Z"/><path id="Path_750" data-name="Path 750" d="M52.84,35.52a1.23,1.23,0,0,0-1.14-.78H34.1a1.23,1.23,0,0,0-1.16.82L30.37,43H55.75Zm-19,.69a1.1,1.1,0,0,1,1-.67h16a1.13,1.13,0,0,1,1,.63l2.37,6.07H31.69Z"/><path id="Path_751" data-name="Path 751" d="M57.19,42.15H29.05a.76.76,0,0,0-.76.76v8.75a.76.76,0,0,0,.76.76H57.19a.76.76,0,0,0,.76-.76V42.91A.76.76,0,0,0,57.19,42.15Zm-.1,8.71a.67.67,0,0,1-.68.67H29.81a.67.67,0,0,1-.67-.67V43.71a.67.67,0,0,1,.67-.67h26.6a.67.67,0,0,1,.68.67Z"/><path id="Path_752" data-name="Path 752" d="M37.17,51.53H30.79a.26.26,0,0,0-.25.26v4.4a.25.25,0,0,0,.25.25h6.38a.26.26,0,0,0,.26-.25v-4.4A.26.26,0,0,0,37.17,51.53Zm-.63,3.85a.17.17,0,0,1-.17.18H31.6a.17.17,0,0,1-.17-.18V52.59a.17.17,0,0,1,.17-.17h4.77a.18.18,0,0,1,.18.17Z"/><path id="Path_753" data-name="Path 753" d="M55.49,51.53H49.11a.26.26,0,0,0-.25.26v4.4a.25.25,0,0,0,.25.25h6.38a.25.25,0,0,0,.25-.25v-4.4A.26.26,0,0,0,55.49,51.53Zm-.63,3.85a.18.18,0,0,1-.17.18H49.91a.18.18,0,0,1-.17-.18V52.59a.18.18,0,0,1,.17-.17h4.78a.18.18,0,0,1,.17.17h0Z"/><path id="Path_754" data-name="Path 754" d="M57,42.15H50.57s-2.88,8.33,7.38,6.3V43.12A1,1,0,0,0,57,42.15Zm-.07,5.5C49.4,49.13,51.51,43,51.51,43H56.2a.71.71,0,0,1,.71.72Z"/><path id="Path_755" data-name="Path 755" d="M28.29,43.21v5.33c10.25,2,7.38-6.3,7.38-6.3H29.26A1,1,0,0,0,28.29,43.21Zm1,.63a.71.71,0,0,1,.71-.71h4.69s2.11,6.1-5.4,4.61Z"/><circle id="Ellipse_85" data-name="Ellipse 85" class="cls-1" cx="53.35" cy="35.54" r="8.65"/><g id="Group_601" data-name="Group 601"><path id="Path_757" data-name="Path 757" class="cls-2" d="M61.39,36.45a.19.19,0,0,0,0,.07,1,1,0,0,1-.91.77l-1.08.14a.17.17,0,0,0-.17.13c-.09.24-.19.47-.29.7a.17.17,0,0,0,0,.21c.23.28.45.57.67.86a1,1,0,0,1-.08,1.39l-1,1a1,1,0,0,1-1.39.09l-.87-.68a.18.18,0,0,0-.21,0c-.22.1-.45.2-.68.28a.2.2,0,0,0-.15.2c-.05.39-.09.78-.16,1.16a1,1,0,0,1-1,.83H52.66a1,1,0,0,1-1.06-.94c-.05-.36-.09-.72-.13-1.08a.18.18,0,0,0-.14-.16l-.69-.29a.18.18,0,0,0-.21,0c-.29.23-.58.46-.88.68a1,1,0,0,1-1.39-.1l-1-1a1,1,0,0,1-.09-1.39l.68-.87a.17.17,0,0,0,0-.22c-.1-.22-.2-.45-.28-.68a.19.19,0,0,0-.19-.15l-1.09-.13a1,1,0,0,1-.91-1V34.83a1,1,0,0,1,.94-1l1.07-.13a.18.18,0,0,0,.18-.14c.08-.23.18-.46.28-.68a.18.18,0,0,0,0-.22l-.68-.87a1,1,0,0,1,.09-1.39l1-1a1,1,0,0,1,1.37-.09c.3.22.59.45.87.68a.21.21,0,0,0,.24,0,5.44,5.44,0,0,1,.66-.28.2.2,0,0,0,.16-.2c0-.36.08-.71.13-1.07a1,1,0,0,1,.78-.89l.06,0h1.82l.06,0a1,1,0,0,1,.78.86c0,.36.1.73.13,1.1a.2.2,0,0,0,.16.2,5.58,5.58,0,0,1,.67.28.2.2,0,0,0,.23,0l.85-.67a1,1,0,0,1,1.39.09l1,1a1,1,0,0,1,.09,1.39c-.23.3-.46.58-.68.88a.22.22,0,0,0,0,.18q.13.36.3.72a.23.23,0,0,0,.15.12l.85.11a1.38,1.38,0,0,1,.83.28,1.26,1.26,0,0,1,.34.59ZM50.48,40.31l.2.07c.38.15.74.32,1.12.46a.42.42,0,0,1,.3.37c0,.45.1.89.16,1.33a.38.38,0,0,0,.36.38H54c.29,0,.4-.1.44-.4s.11-.88.17-1.32a.37.37,0,0,1,.28-.35c.37-.14.74-.29,1.1-.46a.44.44,0,0,1,.48,0l1.08.84a.32.32,0,0,0,.47,0l0,0c.33-.32.66-.65,1-1a.33.33,0,0,0,.09-.47l-.06-.06c-.27-.37-.55-.73-.83-1.08a.4.4,0,0,1,0-.45c.16-.36.32-.72.45-1.09a.45.45,0,0,1,.41-.32l1.32-.17a.35.35,0,0,0,.35-.35V34.86a.35.35,0,0,0-.3-.41h-.06L59,34.28a.42.42,0,0,1-.37-.3c-.14-.36-.28-.72-.44-1.07a.44.44,0,0,1,.05-.52c.28-.34.55-.7.82-1.05a.32.32,0,0,0,0-.47.12.12,0,0,0,0-.05l-1-1a.36.36,0,0,0-.57,0l-1.05.82a.41.41,0,0,1-.47,0q-.52-.24-1.08-.45a.44.44,0,0,1-.32-.4c0-.44-.1-.88-.16-1.32a.36.36,0,0,0-.36-.36h-1.4a.36.36,0,0,0-.42.3v.06c-.06.44-.12.89-.17,1.33a.42.42,0,0,1-.3.39,10.18,10.18,0,0,0-1.08.44.44.44,0,0,1-.5-.05c-.34-.28-.7-.55-1-.82a.34.34,0,0,0-.48,0l-.06.06c-.31.32-.63.64-1,.95a.36.36,0,0,0-.1.49s0,0,.06.08c.27.34.54.7.81,1a.42.42,0,0,1,.06.5A8.79,8.79,0,0,0,48.07,34a.43.43,0,0,1-.41.32l-1.31.17a.36.36,0,0,0-.37.34.22.22,0,0,0,0,.08v1.33c0,.28.1.4.38.43l1.33.17a.4.4,0,0,1,.36.3c.13.36.28.72.44,1.07a.44.44,0,0,1,0,.52c-.28.34-.55.7-.82,1a.33.33,0,0,0,0,.47l.06,0,1,1a.35.35,0,0,0,.49.1l.08-.07,1.05-.81.24-.12Z"/><path id="Path_758" data-name="Path 758" class="cls-2" d="M56.7,35.64a3.35,3.35,0,1,1-3.25-3.45h0A3.35,3.35,0,0,1,56.7,35.64Zm-3.35-2.78A2.68,2.68,0,1,0,56,35.53h0a2.68,2.68,0,0,0-2.67-2.67Z"/></g></g></svg>