<svg id="Layer_1" data-name="Layer 1" xmlns="http://www.w3.org/2000/svg" viewBox="0 0 88.12 90.39"><defs><style>.cls-1{fill:#10708d;}</style></defs><g id="Group_604" data-name="Group 604"><path id="Path_767" data-name="Path 767" d="M44.93,32.06H41.3a.61.61,0,0,0-.6.59v17.4a.61.61,0,0,0,.6.6h3.63a.61.61,0,0,0,.6-.6V32.66A.6.6,0,0,0,44.93,32.06Zm-.25,17.16a.45.45,0,0,1-.45.45H42a.45.45,0,0,1-.45-.45V33.49A.45.45,0,0,1,42,33h2.23a.46.46,0,0,1,.46.45Z"/><path id="Path_768" data-name="Path 768" class="cls-1" d="M52.41,43.17V39.54a.59.59,0,0,0-.59-.59H34.42a.6.6,0,0,0-.6.59v3.63a.61.61,0,0,0,.6.6h17.4A.61.61,0,0,0,52.41,43.17Zm-17.16-.25a.45.45,0,0,1-.45-.45V40.25a.46.46,0,0,1,.45-.46H51a.46.46,0,0,1,.45.46v2.22a.45.45,0,0,1-.45.45Z"/></g></svg>